<svg width="16" height="16" viewBox="0 0 16 16" fill="none" xmlns="http://www.w3.org/2000/svg">
<path d="M8 2.66732C6.71134 2.66732 5.66667 3.71199 5.66667 5.00065C5.66667 6.28932 6.71134 7.33398 8 7.33398C9.28866 7.33398 10.3333 6.28932 10.3333 5.00065C10.3333 3.71199 9.28866 2.66732 8 2.66732ZM4.33333 5.00065C4.33333 2.97561 5.97496 1.33398 8 1.33398C10.025 1.33398 11.6667 2.97561 11.6667 5.00065C11.6667 7.02569 10.025 8.66732 8 8.66732C5.97496 8.66732 4.33333 7.02569 4.33333 5.00065ZM2 12.6673C2 10.8264 3.49238 9.33398 5.33333 9.33398H10.6667C12.5076 9.33398 14 10.8264 14 12.6673V14.6673H2V12.6673ZM5.33333 10.6673C4.22876 10.6673 3.33333 11.5627 3.33333 12.6673V13.334H12.6667V12.6673C12.6667 11.5627 11.7712 10.6673 10.6667 10.6673H5.33333Z" fill="black" fill-opacity="0.9"/>
</svg>
