<svg width="20" height="20" viewBox="0 0 20 20" fill="none" xmlns="http://www.w3.org/2000/svg">
<path d="M9.99998 0.704102L18.0502 5.35189V14.6475L9.99998 19.2953L1.94977 14.6475V5.35189L9.99998 0.704102ZM9.99998 2.6286L3.61643 6.31414V13.6852L9.99998 17.3708L16.3835 13.6852V6.31414L9.99998 2.6286ZM9.99998 7.49969C8.61927 7.49969 7.49998 8.61897 7.49998 9.99969C7.49998 11.3804 8.61927 12.4997 9.99998 12.4997C11.3807 12.4997 12.5 11.3804 12.5 9.99969C12.5 8.61897 11.3807 7.49969 9.99998 7.49969ZM5.83331 9.99969C5.83331 7.6985 7.69879 5.83302 9.99998 5.83302C12.3012 5.83302 14.1666 7.6985 14.1666 9.99969C14.1666 12.3009 12.3012 14.1664 9.99998 14.1664C7.69879 14.1664 5.83331 12.3009 5.83331 9.99969Z" fill="black" fill-opacity="0.9"/>
</svg>
