<svg width="20" height="20" viewBox="0 0 20 20" fill="none" xmlns="http://www.w3.org/2000/svg">
<path d="M2.5 5.00033C2.5 3.15938 3.99238 1.66699 5.83333 1.66699H17.5V18.3337H5.83333C3.99238 18.3337 2.5 16.8413 2.5 15.0003V5.00033ZM4.16667 12.1129C4.65696 11.8293 5.22619 11.667 5.83333 11.667H15.8333V3.33366H5.83333C4.91286 3.33366 4.16667 4.07985 4.16667 5.00033V12.1129ZM15.8333 13.3337H5.83333C4.91286 13.3337 4.16667 14.0799 4.16667 15.0003C4.16667 15.9208 4.91286 16.667 5.83333 16.667H15.8333V13.3337ZM8.33333 5.00033H14.1667V6.66699H8.33333V5.00033Z" fill="black" fill-opacity="0.9"/>
</svg>
