<svg width="16" height="16" viewBox="0 0 16 16" fill="none" xmlns="http://www.w3.org/2000/svg">
<path d="M7.99998 0.563477L14.4402 4.28171V11.7182L7.99998 15.4364L1.55981 11.7182V4.28171L7.99998 0.563477ZM7.99998 2.10308L2.89315 5.05151V10.9484L7.99998 13.8968L13.1068 10.9484V5.05151L7.99998 2.10308ZM7.99998 5.99994C6.89541 5.99994 5.99998 6.89537 5.99998 7.99994C5.99998 9.10451 6.89541 9.99994 7.99998 9.99994C9.10455 9.99994 9.99998 9.10451 9.99998 7.99994C9.99998 6.89537 9.10455 5.99994 7.99998 5.99994ZM4.66665 7.99994C4.66665 6.15899 6.15903 4.66661 7.99998 4.66661C9.84093 4.66661 11.3333 6.15899 11.3333 7.99994C11.3333 9.84089 9.84093 11.3333 7.99998 11.3333C6.15903 11.3333 4.66665 9.84089 4.66665 7.99994Z" fill="black" fill-opacity="0.9"/>
</svg>
