<svg width="20" height="20" viewBox="0 0 20 20" fill="none" xmlns="http://www.w3.org/2000/svg">
<path d="M2.7327 1.66699H17.2673L18.0767 4.09534C18.2276 4.54775 18.4025 5.20522 18.2129 5.89056C18.0761 6.3851 17.8288 6.83255 17.5 7.20516V16.667H18.3333V18.3337H1.66667V16.667H2.5V7.20512C1.9821 6.61809 1.66667 5.84564 1.66667 5.00033V4.86509L2.7327 1.66699ZM4.16667 8.22847V16.667H6.66667V10.8337H13.3333V16.667H15.8333V8.22847C15.5669 8.29711 15.2876 8.33366 15 8.33366C14.0044 8.33366 13.1108 7.8972 12.5 7.20518C11.8892 7.8972 10.9956 8.33366 10 8.33366C9.00442 8.33366 8.11079 7.8972 7.5 7.20518C6.88921 7.8972 5.99558 8.33366 5 8.33366C4.71241 8.33366 4.43313 8.29711 4.16667 8.22847ZM8.33333 5.00033C8.33333 5.9208 9.07952 6.66699 10 6.66699C10.9205 6.66699 11.6667 5.9208 11.6667 5.00033V3.33366H8.33333V5.00033ZM6.66667 3.33366H3.93397L3.33772 5.1224C3.36974 5.56656 3.57527 5.96192 3.88909 6.2428C4.18451 6.50721 4.5726 6.66699 5 6.66699C5.92047 6.66699 6.66667 5.9208 6.66667 5.00033V3.33366ZM13.3333 3.33366V5.00033C13.3333 5.9208 14.0795 6.66699 15 6.66699C15.4274 6.66699 15.8155 6.50721 16.1109 6.2428C16.3464 6.032 16.5207 5.75653 16.6066 5.4462C16.6558 5.26827 16.628 5.0197 16.4956 4.62239L16.066 3.33366H13.3333ZM11.6667 16.667V12.5003H8.33333V16.667H11.6667Z" fill="black" fill-opacity="0.9"/>
</svg>
