<svg width="16" height="16" viewBox="0 0 16 16" fill="none" xmlns="http://www.w3.org/2000/svg">
<path d="M13.6667 3.88979C12.3948 2.1391 10.3309 1 8.00007 1C4.38251 1 1.40663 3.74361 1.03836 7.26397L0.968994 7.92702L2.29509 8.06574L2.36445 7.4027C2.66244 4.55417 5.07234 2.33333 8.00007 2.33333C10.0272 2.33333 11.8069 3.39792 12.8085 5H10.3334V6.33333H15.0001V1.66667H13.6667V3.88979ZM13.705 7.93426L13.6357 8.5973C13.3377 11.4458 10.9278 13.6667 8.00007 13.6667C5.97294 13.6667 4.19329 12.6021 3.19159 11H5.66674V9.66667H1.00007V14.3333H2.3334V12.1102C3.60537 13.8609 5.66919 15 8.00007 15C11.6176 15 14.5935 12.2564 14.9618 8.73603L15.0311 8.07298L13.705 7.93426Z" fill="black" fill-opacity="0.9"/>
</svg>
