<svg width="16" height="16" viewBox="0 0 16 16" fill="none" xmlns="http://www.w3.org/2000/svg">
<path d="M2.66659 1.33325L13.3333 1.33325V4.66659L15.6666 4.66659L15.6666 11.9999H12.6666V14.6666L3.33325 14.6666L3.33325 11.9999H0.333252L0.333252 4.66659H2.66658L2.66659 1.33325ZM3.99992 4.66659L11.9999 4.66659V2.66659L3.99992 2.66659L3.99992 4.66659ZM1.66659 5.99992L1.66659 10.6666H3.33325V9.33325L12.6666 9.33325V10.6666H14.3333L14.3333 5.99992L1.66659 5.99992ZM11.3333 10.6666L4.66658 10.6666L4.66658 13.3333L11.3333 13.3333V10.6666ZM11.3333 6.99731H12.6692V8.33325H11.3333V6.99731Z" fill="#0052D9"/>
</svg>
