<svg width="20" height="20" viewBox="0 0 20 20" fill="none" xmlns="http://www.w3.org/2000/svg">
<path d="M9.99998 0.704346L18.0502 5.35214V14.6477L9.99998 19.2955L1.94977 14.6477V5.35214L9.99998 0.704346ZM9.99998 2.62885L3.61643 6.31439V13.6855L9.99998 17.371L16.3835 13.6855V6.31439L9.99998 2.62885ZM9.99998 7.49993C8.61927 7.49993 7.49998 8.61922 7.49998 9.99993C7.49998 11.3806 8.61927 12.4999 9.99998 12.4999C11.3807 12.4999 12.5 11.3806 12.5 9.99993C12.5 8.61922 11.3807 7.49993 9.99998 7.49993ZM5.83331 9.99993C5.83331 7.69874 7.69879 5.83326 9.99998 5.83326C12.3012 5.83326 14.1666 7.69874 14.1666 9.99993C14.1666 12.3011 12.3012 14.1666 9.99998 14.1666C7.69879 14.1666 5.83331 12.3011 5.83331 9.99993Z" fill="black" fill-opacity="0.9"/>
</svg>
