<svg width="16" height="16" viewBox="0 0 16 16" fill="none" xmlns="http://www.w3.org/2000/svg">
<path d="M10.064 3.93555C8.37178 2.24327 5.62806 2.24327 3.93579 3.93555C2.24352 5.62782 2.24352 8.37153 3.93579 10.0638C5.62806 11.7561 8.37178 11.7561 10.064 10.0638C11.7563 8.37153 11.7563 5.62782 10.064 3.93555ZM2.99298 2.99274C5.20595 0.779765 8.79389 0.779765 11.0069 2.99274C13.0603 5.04622 13.2083 8.28364 11.4508 10.5078L15.0138 14.0707L14.071 15.0135L10.508 11.4506C8.28388 13.2081 5.04647 13.0601 2.99298 11.0066C0.780009 8.79364 0.780009 5.20571 2.99298 2.99274Z" fill="white" fill-opacity="0.9"/>
</svg>
