<svg width="20" height="20" viewBox="0 0 20 20" fill="none" xmlns="http://www.w3.org/2000/svg">
<path d="M2.7327 1.66675H17.2673L18.0767 4.0951C18.2276 4.54751 18.4025 5.20498 18.2129 5.89031C18.0761 6.38485 17.8288 6.83231 17.5 7.20491V16.6667H18.3333V18.3334H1.66667V16.6667H2.5V7.20488C1.9821 6.61785 1.66667 5.8454 1.66667 5.00008V4.86485L2.7327 1.66675ZM4.16667 8.22822V16.6667H6.66667V10.8334H13.3333V16.6667H15.8333V8.22822C15.5669 8.29687 15.2876 8.33341 15 8.33341C14.0044 8.33341 13.1108 7.89695 12.5 7.20493C11.8892 7.89695 10.9956 8.33341 10 8.33341C9.00442 8.33341 8.11079 7.89695 7.5 7.20493C6.88921 7.89695 5.99558 8.33341 5 8.33341C4.71241 8.33341 4.43313 8.29687 4.16667 8.22822ZM8.33333 5.00008C8.33333 5.92056 9.07952 6.66675 10 6.66675C10.9205 6.66675 11.6667 5.92056 11.6667 5.00008V3.33341H8.33333V5.00008ZM6.66667 3.33341H3.93397L3.33772 5.12216C3.36974 5.56632 3.57527 5.96168 3.88909 6.24256C4.18451 6.50696 4.5726 6.66675 5 6.66675C5.92047 6.66675 6.66667 5.92056 6.66667 5.00008V3.33341ZM13.3333 3.33341V5.00008C13.3333 5.92056 14.0795 6.66675 15 6.66675C15.4274 6.66675 15.8155 6.50696 16.1109 6.24256C16.3464 6.03176 16.5207 5.75628 16.6066 5.44596C16.6558 5.26803 16.628 5.01946 16.4956 4.62215L16.066 3.33341H13.3333ZM11.6667 16.6667V12.5001H8.33333V16.6667H11.6667Z" fill="black" fill-opacity="0.9"/>
</svg>
