<svg width="16" height="16" viewBox="0 0 16 16" fill="none" xmlns="http://www.w3.org/2000/svg">
<path d="M8 2.66683C6.71134 2.66683 5.66667 3.7115 5.66667 5.00016C5.66667 6.28883 6.71134 7.3335 8 7.3335C9.28866 7.3335 10.3333 6.28883 10.3333 5.00016C10.3333 3.7115 9.28866 2.66683 8 2.66683ZM4.33333 5.00016C4.33333 2.97512 5.97496 1.3335 8 1.3335C10.025 1.3335 11.6667 2.97512 11.6667 5.00016C11.6667 7.02521 10.025 8.66683 8 8.66683C5.97496 8.66683 4.33333 7.02521 4.33333 5.00016ZM2 12.6668C2 10.8259 3.49238 9.3335 5.33333 9.3335H10.6667C12.5076 9.3335 14 10.8259 14 12.6668V14.6668H2V12.6668ZM5.33333 10.6668C4.22876 10.6668 3.33333 11.5623 3.33333 12.6668V13.3335H12.6667V12.6668C12.6667 11.5623 11.7712 10.6668 10.6667 10.6668H5.33333Z" fill="black" fill-opacity="0.9"/>
</svg>
