<svg width="16" height="16" viewBox="0 0 16 16" fill="none" xmlns="http://www.w3.org/2000/svg">
<path d="M10.064 3.93579C8.37178 2.24352 5.62806 2.24352 3.93579 3.93579C2.24352 5.62806 2.24352 8.37178 3.93579 10.064C5.62806 11.7563 8.37178 11.7563 10.064 10.064C11.7563 8.37178 11.7563 5.62806 10.064 3.93579ZM2.99298 2.99298C5.20595 0.780009 8.79389 0.780009 11.0069 2.99298C13.0603 5.04647 13.2083 8.28388 11.4508 10.508L15.0138 14.071L14.071 15.0138L10.508 11.4508C8.28388 13.2083 5.04647 13.0603 2.99298 11.0069C0.780009 8.79389 0.780009 5.20595 2.99298 2.99298Z" fill="white" fill-opacity="0.9"/>
</svg>
